{"title":"Date Nite NICO Xvid.avi","uid":5562569,"size":1471329916,"categoryP":"video","categoryS":"movies","magnet":"?xt=urn:btih:fdcd5f86e667d5d5d6ac60ba3c025368c1faae4e&amp;dn=Date+Nite+NICO+Xvid.avi&amp;tr=udp%3A%2F%2Ftracker.openbittorrent.com%3A80&amp;tr=udp%3A%2F%2Fopen.demonii.com%3A1337&amp;tr=udp%3A%2F%2Ftracker.coppersurfer.tk%3A6969&amp;tr=udp%3A%2F%2Fexodus.desync.com%3A6969","seeders":0,"leechers":0,"uploader":"queenrock","files":1,"time":1273879999,"description":"Date Night NICO Xvid\n\nRating.......:7.1/10                             \nVideo Codec.......: XViD                                         Release Date......:09/04/10\nAudio Codec.......:MP3                                           Theatre Date......:17/04/10\nAudio Bitrate.....:128                                           Runtime.......:1h 22mn\nSubtitles.........:ENG WHEN NEEDED                               Language..........:ENGLISH\nResolution...... 704 x 352                                       IMDb URL..........:http://www.imdb.com/title/tt1279935/\n\n\n\n[color=yellow]DETAILS:[/color]\n\nVideo\nID                               : 0\nFormat                           : MPEG-4 Visual\nFormat profile                   : Advanced Simple@L5\nFormat settings, BVOP            : Yes\nFormat settings, QPel            : No\nFormat settings, GMC             : No warppoints\nFormat settings, Matrix          : Default (MPEG)\nMuxing mode                      : Packed bitstream\nCodec ID                         : XVID\nCodec ID/Hint                    : XviD\nDuration                         : 1h 22mn\nBit rate                         : 2 254 Kbps\nWidth                            : 704 pixels\nHeight                           : 352 pixels\nDisplay aspect ratio             : 2.000\nFrame rate                       : 25.000 fps\nResolution                       : 8 bits\nColorimetry                      : 4:2:0\nScan type                        : Progressive\nBits/(Pixel*Frame)               : 0.364\nStream size                      : 1.29 GiB (94%)\nWriting library                  : XviD 1.2.1 (UTC 2008-12-04)\n\nAudio\nID                               : 1\nFormat                           : MPEG Audio\nFormat version                   : Version 1\nFormat profile                   : Layer 3\nCodec ID                         : 55\nCodec ID/Hint                    : MP3\nDuration                         : 1h 22mn\nBit rate mode                    : Constant\nBit rate                         : 128 Kbps\nChannel(s)                       : 2 channels\nSampling rate                    : 44.1 KHz\nStream size                      : 75.1 MiB (5%)\nAlignment                        : Split accross interleaves\nInterleave, duration             : 40 ms (1.00 video frame)\nInterleave, preload duration     : 500 ms\n\n","torrent":{"xt":"urn:btih:fdcd5f86e667d5d5d6ac60ba3c025368c1faae4e","amp;dn":"Date+Nite+NICO+Xvid.avi","amp;tr":["udp%3A%2F%2Ftracker.openbittorrent.com%3A80","udp%3A%2F%2Fopen.demonii.com%3A1337","udp%3A%2F%2Ftracker.coppersurfer.tk%3A6969","udp%3A%2F%2Fexodus.desync.com%3A6969"],"infoHash":"fdcd5f86e667d5d5d6ac60ba3c025368c1faae4e","infoHashBuffer":{"type":"Buffer","data":[253,205,95,134,230,103,213,213,214,172,96,186,60,2,83,104,193,250,174,78]},"announce":[],"urlList":[]}}